<svg width="22" height="22" viewBox="0 0 22 22" fill="none" xmlns="http://www.w3.org/2000/svg">
<g clip-path="url(#clip0_4450_26381)">
<path d="M18.9644 9.77292C18.8852 8.87022 18.6273 8.01149 18.2257 7.19965C18.1055 6.95639 18.0879 6.95346 17.8944 7.14689C17.4664 7.57479 17.0385 8.00269 16.6134 8.4306C16.5098 8.53415 16.4072 8.53611 16.3056 8.43646C16.2118 8.34267 16.118 8.24888 16.0271 8.15803C15.9294 8.06033 15.9294 7.96166 16.0271 7.86201C16.5196 7.36963 17.0121 6.87432 17.5045 6.38194C17.6511 6.2354 17.6511 6.20316 17.528 6.03611C17.4488 5.9306 17.3668 5.82802 17.2818 5.72544C17.1469 5.55936 17.0043 5.55154 16.8538 5.70199C13.4651 9.0959 10.0793 12.4898 6.69059 15.8808C6.65834 15.913 6.62903 15.9423 6.59678 15.9746C6.49712 16.083 6.49712 16.1328 6.60851 16.2295C6.73456 16.338 6.86354 16.4406 6.99546 16.5402C7.19479 16.6897 7.21238 16.6897 7.38533 16.5168C7.88074 16.0185 8.37615 15.5232 8.87449 15.025C8.98588 14.9136 8.99761 14.9136 9.109 15.022C9.20867 15.1217 9.30833 15.2213 9.408 15.321C9.51549 15.4284 9.51744 15.5349 9.41387 15.6404C8.96829 16.0859 8.52272 16.5314 8.08008 16.9769C7.95402 17.1029 7.95989 17.144 8.11525 17.2231C8.68688 17.5132 9.29075 17.7213 9.91514 17.8649C10.2376 17.9382 10.5659 17.9705 10.8942 18.0027H11.0408C11.0584 17.9822 11.0818 17.988 11.1053 17.988C11.1317 17.991 11.1639 17.9792 11.1874 18.0027H11.3046C11.4307 17.9792 11.5567 17.9792 11.6857 18.0027H11.8323C11.8557 17.9792 11.885 17.991 11.9144 17.988C11.9378 17.988 11.9613 17.9822 11.9788 18.0027H12.0375C12.2104 17.9705 12.3834 17.988 12.5563 17.9617C13.3683 17.8415 14.1393 17.5894 14.8663 17.2114C16.2734 16.4787 17.3492 15.4089 18.1143 14.0197C18.8413 12.695 19.0904 11.2706 18.9615 9.77585L18.9644 9.77292ZM11.1082 13.9904C10.8415 14.26 10.5718 14.5267 10.305 14.7964C10.2493 14.855 10.2171 14.8403 10.1702 14.7905C10.0119 14.6264 9.85064 14.4622 9.68649 14.3069C9.62199 14.2454 9.63665 14.2161 9.69235 14.1604C9.95618 13.9025 10.2171 13.6387 10.475 13.3749C10.5278 13.3192 10.56 13.3016 10.6216 13.369C10.777 13.5361 10.9441 13.6944 11.1053 13.8556C11.1258 13.8761 11.1434 13.8966 11.1698 13.923C11.1463 13.9494 11.1287 13.9699 11.1082 13.9904ZM12.656 12.44C12.3922 12.7067 12.1254 12.9705 11.8616 13.2372C11.8176 13.2811 11.7883 13.3046 11.7355 13.246C11.5714 13.073 11.4014 12.906 11.2313 12.7389C11.1874 12.695 11.1815 12.6686 11.2313 12.6217C11.5098 12.3491 11.7824 12.0707 12.058 11.7952C12.0873 11.7659 12.1108 11.7454 12.1518 11.7864C12.3277 11.9681 12.5094 12.1469 12.6882 12.3257C12.7 12.3374 12.7117 12.355 12.7234 12.3726C12.7 12.3989 12.6795 12.4195 12.6589 12.44H12.656ZM14.2155 10.8778C13.9488 11.1475 13.6791 11.4142 13.4123 11.6868C13.3625 11.7366 13.3332 11.7366 13.2863 11.6868C13.125 11.5168 12.9609 11.3526 12.7908 11.1914C12.7293 11.1328 12.7498 11.1035 12.7967 11.0537C13.0635 10.7899 13.3273 10.5232 13.5911 10.2594C13.6234 10.2272 13.6497 10.1803 13.7054 10.2389C13.8784 10.4177 14.0543 10.5906 14.2302 10.7665C14.2448 10.7811 14.2565 10.7958 14.2712 10.8134C14.2507 10.8368 14.236 10.8603 14.2155 10.8808V10.8778ZM15.7662 9.3245C15.5024 9.58827 15.2356 9.85498 14.9747 10.1217C14.9249 10.1744 14.8927 10.1862 14.837 10.1246C14.6757 9.95463 14.5116 9.7905 14.3416 9.62931C14.2917 9.57948 14.2888 9.5531 14.3416 9.50328C14.6142 9.23364 14.8868 8.96108 15.1565 8.68851C15.1887 8.65627 15.2122 8.62696 15.2591 8.67679C15.435 8.8585 15.6167 9.03435 15.7926 9.21606C15.8043 9.22778 15.8161 9.24537 15.8278 9.26002C15.8043 9.28347 15.7867 9.30691 15.7662 9.32743V9.3245Z" fill="black"/>
<path d="M16.3969 4.99883C16.4585 4.93142 16.4585 4.86401 16.391 4.80832C16.2181 4.65885 16.0422 4.51231 15.8517 4.38335C15.793 4.34232 15.7315 4.35111 15.6758 4.398C15.6377 4.43024 15.6054 4.46541 15.5703 4.50058C15.0778 4.99296 14.5853 5.48827 14.0928 5.98065C13.9756 6.09789 13.9668 6.09789 13.8495 5.98065C13.7499 5.88101 13.6502 5.78136 13.5505 5.68171C13.4469 5.57815 13.445 5.47655 13.5447 5.3769C13.9932 4.92849 14.4417 4.48007 14.8872 4.02872C15.0045 3.91149 14.9986 3.84994 14.8638 3.78546C14.2775 3.50703 13.6707 3.28136 13.0346 3.14068C12.6858 3.06448 12.334 3.03517 11.9822 3.00586H11.6891C11.5425 3.02931 11.3959 3.02931 11.2494 3.00586H11.1321C11.1145 3.02344 11.094 3.02051 11.0735 3.02051C11.053 3.02051 11.0324 3.02344 11.0149 3.00586H10.8683C10.7246 3.03517 10.5781 3.02051 10.4374 3.04103C9.73969 3.14068 9.06547 3.33704 8.42642 3.63306C7.42681 4.0932 6.56205 4.73798 5.83799 5.57034C4.95857 6.57561 4.37815 7.73329 4.10553 9.04924C4.0469 9.32767 4.03518 9.60609 4 9.88452V10.0018C4.02052 10.0193 4.01466 10.0428 4.01466 10.0633C4.01466 10.0809 4.01466 10.0955 4.01466 10.1131C4.01466 10.1336 4.01759 10.1571 4 10.1747V10.2626C4.02345 10.4091 4.02345 10.5557 4 10.7022V10.8195C4.02052 10.837 4.01466 10.8605 4.01466 10.8839C4.01173 10.9103 4.02345 10.9426 4 10.966V11.0832C4.02931 11.2151 4.01759 11.3529 4.03518 11.4877C4.14657 12.2907 4.38108 13.0586 4.73871 13.7884C4.8677 14.0492 4.87649 14.0492 5.08462 13.8411C5.5214 13.4015 5.95818 12.9648 6.39789 12.5252C6.50928 12.4138 6.51808 12.4138 6.62947 12.5252C6.73207 12.6278 6.8376 12.7333 6.9402 12.8359C7.03987 12.9355 7.04084 13.0352 6.94313 13.1348C6.44479 13.636 5.94352 14.1342 5.44518 14.6354C5.32206 14.7585 5.31913 14.7995 5.4188 14.9373C5.50381 15.0574 5.59762 15.1688 5.69142 15.2831C5.88196 15.5205 5.89076 15.5205 6.10182 15.3124C9.49932 11.9097 12.8968 8.5041 16.2943 5.1014C16.3295 5.06623 16.3617 5.03106 16.3969 4.99589V4.99883ZM8.62576 11.4994C8.359 11.769 8.08931 12.0358 7.82255 12.3054C7.76686 12.3611 7.73754 12.3552 7.68771 12.3025C7.52648 12.1354 7.35939 11.9683 7.1923 11.8071C7.13953 11.7573 7.14833 11.728 7.1923 11.6811C7.46199 11.4144 7.73168 11.1477 7.99551 10.8751C8.04827 10.8195 8.08052 10.8195 8.13328 10.8751C8.29158 11.0393 8.45574 11.2005 8.61696 11.3617C8.63748 11.3822 8.658 11.4027 8.68145 11.4291C8.66093 11.4525 8.64335 11.476 8.62283 11.4965L8.62576 11.4994ZM10.1794 9.94314C9.91264 10.2128 9.64295 10.4795 9.3762 10.752C9.32636 10.8019 9.29705 10.7989 9.25015 10.752C9.08892 10.585 8.92476 10.4179 8.75474 10.2567C8.69318 10.1981 8.7137 10.1659 8.7606 10.119C9.02736 9.85522 9.29119 9.58851 9.55501 9.32473C9.58726 9.2925 9.61364 9.2456 9.66934 9.30422C9.84229 9.483 10.0182 9.65592 10.1941 9.83177C10.2087 9.84642 10.2175 9.86108 10.2351 9.87866C10.2146 9.90211 10.197 9.92556 10.1765 9.94607L10.1794 9.94314ZM11.7272 8.39566C11.4634 8.65357 11.2025 8.91735 10.9416 9.18112C10.9181 9.20457 10.8917 9.22509 10.8654 9.24853C10.8419 9.22802 10.8243 9.21336 10.8097 9.19578C10.6455 9.03165 10.4813 8.86166 10.3113 8.70047C10.2527 8.64478 10.2585 8.61547 10.3113 8.56272C10.5781 8.29894 10.8448 8.03517 11.1057 7.76553C11.1673 7.70105 11.1995 7.71571 11.2552 7.77139C11.4106 7.93259 11.5689 8.09378 11.7301 8.24619C11.7917 8.3048 11.7858 8.33704 11.7301 8.39566H11.7272ZM13.3072 6.81301C13.0258 7.08851 12.7502 7.36987 12.4718 7.6483C12.4571 7.66295 12.4424 7.67468 12.4307 7.68347C12.3897 7.68347 12.378 7.65416 12.3574 7.63364C12.1903 7.46952 12.0291 7.29953 11.862 7.14126C11.8005 7.08265 11.8151 7.05334 11.8679 7.00352C12.1346 6.73974 12.3985 6.47597 12.6623 6.20926C12.7092 6.15944 12.7415 6.14185 12.7971 6.20047C12.9584 6.37046 13.1255 6.53165 13.2896 6.69871C13.3219 6.73095 13.3658 6.75439 13.3072 6.81301Z" fill="black"/>
</g>
<defs>
<clipPath id="clip0_4450_26381">
<rect width="15" height="15" fill="white" transform="translate(4 3)"/>
</clipPath>
</defs>
</svg>
