<svg width="1440" height="583" viewBox="0 0 1440 583" fill="none" xmlns="http://www.w3.org/2000/svg">
<rect width="1440" height="583" fill="#031945"/>
<mask id="mask0_4494_21645" style="mask-type:alpha" maskUnits="userSpaceOnUse" x="0" y="0" width="1440" height="582">
<rect width="1440" height="582" fill="#031945"/>
</mask>
<g mask="url(#mask0_4494_21645)">
<path opacity="0.3" d="M-111.07 444.862C-111.07 444.862 -111.034 444.763 -111.004 444.705L-109.541 445.502C-109.469 445.377 -109.397 445.252 -109.337 445.135L-108.105 446.138C-107.963 445.961 -107.82 445.784 -107.669 445.618L-106.733 446.714C-106.494 446.519 -106.275 446.322 -106.036 446.127L-105.392 447.222C-105.072 447.039 -104.759 446.845 -104.438 446.662L-104.051 447.657C-103.66 447.495 -103.269 447.333 -102.878 447.171L-102.664 448.005C-102.218 447.893 -101.781 447.769 -101.336 447.657L-101.25 448.315C-100.77 448.25 -100.287 448.164 -99.8068 448.098L-99.7898 448.591C-99.2838 448.56 -98.7778 448.53 -98.2718 448.499L-98.2851 448.852C4.20755 451.264 70.8369 428.63 113.999 396.79C158.376 364.053 177.731 321.706 185.928 287.68C186.323 286.017 186.692 284.392 187.04 282.765C213.157 281.159 236.61 276.016 256.513 269.668C299.855 255.86 326.535 236.414 327.987 235.343L328.045 235.299C328.163 235.212 354.704 215.453 381.809 181.315C395.356 164.25 409.048 143.579 419.639 119.963C423.617 111.076 427.151 101.758 430.084 92.0722C433.452 85.619 436.573 79.0047 439.343 72.235C443.415 66.2909 447.239 60.2587 450.728 54.1672C455.802 48.7652 460.608 43.3975 465.101 38.0987C471.454 33.5923 477.568 29.2804 483.325 25.2501L483.727 24.9541C487.236 23.6096 490.716 22.3233 494.124 21.1621L494.929 20.8936L495.402 20.2014L495.426 20.184C495.536 20.0124 496.078 19.2156 497.11 17.8229C499.737 17.4549 502.365 17.1393 504.973 16.8937L505.725 16.826L506.321 16.3499C506.321 16.3499 508.063 14.9563 511.472 12.1895C512.973 12.2727 514.471 12.3763 515.966 12.5003L516.532 12.5515L517.064 12.3579C517.064 12.3579 520.526 11.0482 526.796 8.01027C526.887 8.03385 526.98 8.03704 527.07 8.06063L527.435 8.13459L527.806 8.09488C527.944 8.08364 534.887 7.4897 546.662 4.10695C552.293 4.15594 560.622 3.78467 570.891 2.0176C590.297 -1.34802 616.54 -9.77516 643.874 -29.9397C678.243 -55.2934 714.271 -99.1521 740.812 -174.473L736.083 -176.09C736.083 -176.09 736.047 -175.991 736.017 -175.933L734.554 -176.73C734.483 -176.605 734.411 -176.48 734.351 -176.363L733.119 -177.367C732.976 -177.189 732.834 -177.012 732.682 -176.846L731.747 -177.942C731.507 -177.747 731.289 -177.55 731.049 -177.355L730.406 -178.45C730.085 -178.267 729.773 -178.073 729.452 -177.891L729.064 -178.885C728.673 -178.723 728.282 -178.561 727.892 -178.399L727.677 -179.233C727.232 -179.121 726.795 -178.997 726.349 -178.885L726.264 -179.544C725.784 -179.478 725.3 -179.392 724.82 -179.327L724.803 -179.819C724.297 -179.789 723.791 -179.758 723.285 -179.727L723.298 -180.08C620.812 -182.533 554.171 -159.89 511.009 -128.05C466.632 -95.3133 447.277 -52.9664 439.08 -18.9404C438.685 -17.2777 438.316 -15.6527 437.968 -14.0248C411.86 -12.4074 388.406 -7.26476 368.495 -0.92833C325.153 12.8792 298.473 32.3259 297.021 33.3968L296.974 33.4317C296.844 33.5274 270.304 53.2864 243.211 87.4158C229.664 104.48 215.972 125.152 205.381 148.768C201.403 157.655 197.861 166.961 194.936 176.659C191.568 183.112 188.446 189.726 185.676 196.496C181.605 202.44 177.78 208.472 174.291 214.564C169.218 219.966 164.412 225.334 159.919 230.632C153.565 235.139 147.451 239.451 141.694 243.481L141.293 243.777C137.783 245.121 134.303 246.408 130.895 247.569L130.091 247.837L129.606 248.538L129.582 248.556C129.472 248.727 128.93 249.524 127.898 250.917C125.271 251.285 122.642 251.6 120.035 251.846L119.283 251.914L118.687 252.39C118.687 252.39 116.945 253.783 113.536 256.55C112.035 256.467 110.537 256.363 109.042 256.239L108.485 256.2L107.953 256.393C107.953 256.393 104.49 257.703 98.2203 260.741C98.13 260.717 98.0279 260.703 97.9462 260.691L97.5818 260.617L97.2101 260.656C97.0726 260.668 90.1294 261.262 78.3544 264.644C72.7231 264.595 64.3948 264.967 54.1252 266.734C34.7194 270.099 8.47662 278.527 -18.858 298.691C-53.2269 324.045 -89.2541 367.903 -115.795 443.225L-111.067 444.842L-111.07 444.862ZM79.0001 269.67C79.8447 269.679 80.6129 269.707 81.3082 269.735C69.1165 276.655 53.1293 286.68 34.1391 300.689C-1.58715 327.044 -47.8818 367.509 -99.3724 427.934C-63.8284 368.918 -26.5343 331.323 5.92262 307.38C32.0534 288.103 55.0485 277.67 71.4846 272.057C74.1765 271.136 76.6795 270.354 79.0205 269.673L79.0001 269.67ZM119.302 261.821C118.711 262.528 118.094 263.272 117.453 264.034C115.968 263.848 114.485 263.643 112.995 263.426C113.771 262.799 114.501 262.206 115.172 261.658C116.55 261.723 117.929 261.788 119.302 261.821ZM303.008 59.4489L303.067 59.4054C304.507 58.3432 330.871 39.1111 371.687 23.3611C390.044 16.2769 411.327 9.92129 434.569 6.19712C434.175 9.5908 433.885 12.7808 433.689 15.7758C411.022 21.6377 389.932 29.7628 371.587 38.1729C332.123 56.299 305.393 75.8009 303.304 77.342L303.186 77.4291C303.115 77.4814 276.737 97.1388 246.116 126.709C231.245 141.089 215.383 157.805 201.038 175.765C202.9 172.335 204.82 168.934 206.824 165.598C225.444 134.509 249.52 107.926 268.931 89.1512C278.638 79.7535 287.172 72.3221 293.281 67.238C296.33 64.7003 298.778 62.732 300.455 61.4228C301.299 60.7639 301.94 60.2733 302.38 59.9308C302.604 59.7653 302.769 59.6434 302.875 59.5651C302.981 59.4867 303.041 59.4431 303.041 59.4431L303.008 59.4489ZM545.949 -0.886961C545.104 -0.89533 544.336 -0.923876 543.641 -0.952193C555.832 -7.87134 571.82 -17.8971 590.798 -31.8974C626.524 -58.2523 672.819 -98.7174 724.309 -159.143C688.765 -100.126 651.471 -62.5309 619.015 -38.5876C592.884 -19.3112 569.889 -8.87812 553.453 -3.26558C550.761 -2.34409 548.258 -1.56194 545.917 -0.881264L545.949 -0.886961ZM505.647 6.96169C506.238 6.25536 506.855 5.51124 507.496 4.74969C508.981 4.93483 510.463 5.14035 511.954 5.35756C511.177 5.98465 510.448 6.5769 509.777 7.12564C508.399 7.0603 507.02 6.99497 505.647 6.96169ZM323.426 211.323L321.905 209.36L321.882 209.378C320.442 210.44 294.078 229.672 253.262 245.422C234.904 252.506 213.622 258.862 190.38 262.586C190.774 259.192 191.064 256.002 191.26 253.007C213.927 247.145 235.016 239.02 253.362 230.61C292.826 212.484 319.555 192.982 321.644 191.441L321.774 191.345C321.833 191.302 348.22 171.656 378.832 142.074C393.704 127.695 409.566 110.978 423.911 93.0181C422.049 96.4482 420.129 99.8489 418.125 103.185C399.505 134.275 375.429 160.857 356.018 179.632C346.311 189.03 337.777 196.461 331.668 201.545C328.619 204.083 326.171 206.051 324.494 207.36C323.65 208.019 323.009 208.51 322.569 208.852C322.345 209.018 322.18 209.14 322.074 209.218C321.967 209.297 321.908 209.34 321.908 209.34L323.382 211.338L323.426 211.323ZM89.0179 271.119C90.6542 271.608 92.2786 272.105 93.9094 272.562C61.643 298.962 -1.80869 351.326 -94.2795 429.625C-43.5604 370.329 1.98568 330.578 37.0982 304.676C58.8148 288.656 76.5295 277.933 89.0383 271.122L89.0179 271.119ZM107.758 267.667C109.692 267.991 111.629 268.294 113.56 268.565C112.682 269.573 111.765 270.628 110.793 271.707C108.735 271.24 106.669 270.762 104.589 270.24C105.464 269.523 106.311 268.843 107.115 268.178C107.339 268.013 107.534 267.833 107.738 267.664L107.758 267.667ZM306.134 81.4244L306.24 81.346C308.14 79.9442 334.625 60.6047 373.636 42.7046C391.356 34.5577 411.654 26.7451 433.385 20.9969C433.246 24.2923 433.191 27.2557 433.207 29.823C411.897 37.8949 391.561 47.6832 373.647 57.3447C336.231 77.5314 309.416 97.1147 306.548 99.2304C306.382 99.3523 306.3 99.4132 306.3 99.4132C306.264 99.4394 279.969 119.036 247.603 146.339C231.027 160.335 212.873 176.343 195.822 192.782C196.054 191.763 196.286 190.744 196.539 189.727C212.69 167.891 231.828 147.387 249.572 130.257C264.76 115.589 278.919 103.358 289.267 94.8044C294.446 90.5334 298.668 87.1659 301.594 84.8814C303.067 83.7406 304.195 82.8727 304.977 82.2776C305.747 81.6913 306.149 81.3953 306.149 81.3953L306.134 81.4244ZM535.934 -2.35666C534.298 -2.84531 532.674 -3.34264 531.043 -3.79922C563.309 -30.1996 626.761 -82.5635 719.232 -160.862C668.521 -101.554 622.978 -61.8239 587.866 -35.9217C566.149 -19.9015 548.434 -9.17871 535.926 -2.36834L535.934 -2.35666ZM561.309 -35.1099C546.429 -22.8166 534.369 -12.9277 525.162 -5.39636C522.745 -6.03015 520.353 -6.62886 517.963 -7.17515C538.787 -30.1131 575.144 -65.7182 631.678 -107.423C655.247 -124.81 682.335 -143.259 713.261 -162.285C647.449 -106.574 596.529 -64.1765 561.329 -35.107L561.309 -35.1099ZM517.194 1.09547C515.26 0.772022 513.312 0.477678 511.392 0.197984C512.27 -0.810548 513.187 -1.86557 514.159 -2.94375C516.217 -2.47715 518.283 -1.99885 520.363 -1.47681C519.488 -0.75967 518.641 -0.0803628 517.837 0.584536C517.613 0.749962 517.418 0.930091 517.214 1.09849L517.194 1.09547ZM320.292 189.336L318.795 187.356L318.783 187.365L318.712 187.417C316.812 188.819 290.327 208.158 251.316 226.058C233.597 234.205 213.298 242.018 191.567 247.766C191.706 244.471 191.761 241.507 191.745 238.94C213.055 230.868 233.391 221.08 251.306 211.418C288.721 191.231 315.536 171.648 318.404 169.532C318.558 169.419 318.64 169.358 318.652 169.35C318.652 169.35 344.983 149.727 377.349 122.424C393.925 108.428 412.079 92.4201 429.13 75.9808C428.898 77 428.657 78.0076 428.413 79.0355C412.262 100.871 393.124 121.375 375.38 138.506C360.192 153.173 346.033 165.405 335.685 173.958C330.506 178.229 326.284 181.597 323.358 183.882C321.885 185.022 320.757 185.89 319.975 186.485C319.205 187.072 318.804 187.368 318.804 187.368L320.277 189.365L320.292 189.336ZM135.967 281.151C135.512 281.992 135.069 282.824 134.59 283.682C120.801 308.448 96.7202 340.608 55.2934 371.168C23.7099 394.467 -17.9828 416.835 -72.9244 434.238C-29.0816 414.217 6.4335 392.69 35.0192 371.602C82.064 336.898 110.382 303.416 126.538 279.808C129.697 280.31 132.833 280.757 135.947 281.148L135.967 281.151ZM32.0837 367.598C2.45941 389.452 -34.7324 411.819 -81.1291 432.48C-51.9769 414.384 -26.2802 396.817 -3.76098 380.204C54.7795 337.02 91.8581 300.268 112.566 277.199C115.446 277.817 118.303 278.379 121.146 278.898C105.076 301.955 77.3936 334.174 32.0719 367.607L32.0837 367.598ZM58.2611 375.166C100.974 343.657 125.643 310.342 139.637 284.866C140.22 283.804 140.745 282.786 141.302 281.761C144.641 282.112 147.928 282.393 151.201 282.63C150.881 283.408 150.553 284.173 150.233 284.95C138.49 312.266 116.46 346.935 75.0334 377.495C42.4348 401.543 -2.20447 423.054 -63.3802 436.38C-11.8818 419.225 27.7955 397.658 58.2814 375.169L58.2611 375.166ZM143.739 276.987C144.774 274.906 145.735 272.899 146.622 270.963C149.647 270.987 152.652 270.935 155.631 270.848C154.866 273.072 154.048 275.371 153.135 277.741C150.033 277.539 146.898 277.291 143.742 276.967L143.739 276.987ZM148.823 265.967C149.646 264.043 150.394 262.192 151.074 260.445C153.773 260.151 156.445 259.821 159.116 259.438C158.57 261.465 157.966 263.587 157.263 265.82C154.47 265.914 151.643 265.961 148.823 265.967ZM164.495 258.627C167.248 258.183 169.987 257.696 172.721 257.177C172.318 259.621 171.849 262.222 171.288 264.944C168.397 265.201 165.501 265.425 162.573 265.583C163.309 263.146 163.944 260.819 164.516 258.63L164.495 258.627ZM165.755 253.368C166.248 251.146 166.657 249.131 166.993 247.313C169.426 246.583 171.849 245.842 174.279 245.059C174.092 247.128 173.834 249.446 173.498 251.931C170.934 252.433 168.362 252.924 165.767 253.359L165.755 253.368ZM168.352 237.544C170.516 236.524 172.684 235.485 174.842 234.433C174.838 235.663 174.801 237.441 174.67 239.684C172.413 240.429 170.138 241.151 167.867 241.852C168.145 239.807 168.289 238.348 168.352 237.544ZM309.259 103.4C309.259 103.4 309.342 103.339 309.495 103.226C312.233 101.206 338.895 81.7356 376.001 61.7229C393.301 52.3888 412.869 42.9683 433.321 35.1153C433.446 38.324 433.633 40.3323 433.684 40.9444C433.665 41.5359 433.616 42.1128 433.588 42.6926C413.962 53.0221 394.615 64.4977 377.225 75.4138C342.178 97.426 315.149 117.166 310.216 120.805C309.685 121.197 309.413 121.397 309.413 121.397C309.413 121.397 308.398 122.146 306.519 123.551C300.859 127.762 287.332 137.813 269.711 150.812C248.065 166.78 220.242 187.196 193.226 206.729C193.494 204.944 193.783 203.161 194.089 201.402C212.462 183.321 232.592 165.495 250.802 150.131C266.919 136.527 281.537 124.842 292.124 116.563C297.417 112.424 301.7 109.138 304.664 106.88C306.145 105.751 307.293 104.886 308.064 104.3C308.843 103.725 309.256 103.42 309.256 103.42L309.259 103.4ZM456.591 31.2076C454.427 32.2268 452.26 33.2664 450.101 34.3177C450.105 33.088 450.143 31.3106 450.274 29.0672C452.531 28.3221 454.805 27.6005 457.076 26.8992C456.799 28.944 456.654 30.4035 456.591 31.2076ZM445.102 36.2376C445.058 36.4502 445.018 36.6424 444.974 36.855C442.856 37.9123 440.747 38.9812 438.635 40.0705C438.541 39.129 438.359 36.7565 438.272 33.2302C440.566 32.3862 442.876 31.5655 445.184 30.7653C445.068 33.6469 445.096 35.5382 445.111 36.2493L445.102 36.2376ZM443.59 43.1073C443.174 44.8399 442.724 46.5783 442.258 48.2932C440.857 49.3089 439.447 50.3129 438.034 51.3373C438.198 49.4845 438.342 47.6287 438.456 45.7582C440.172 44.8717 441.878 43.9735 443.59 43.1073ZM272.67 154.798C296.181 137.455 312.396 125.367 312.396 125.367C312.396 125.367 312.668 125.166 313.187 124.783C318.05 121.196 344.986 101.505 379.881 79.6064C396.381 69.2383 414.691 58.3832 433.245 48.5021C433.07 50.76 432.866 53.0032 432.609 55.2491C404.386 75.6179 374.958 97.2186 352.285 113.944C328.775 131.288 312.559 143.376 312.559 143.376C312.559 143.376 312.3 143.567 311.78 143.951C306.918 147.538 279.981 167.228 245.086 189.127C228.586 199.495 210.276 210.351 191.722 220.232C191.897 217.974 192.101 215.731 192.358 213.485C220.581 193.116 250.009 171.515 272.682 154.79L272.67 154.798ZM317.17 167.34L315.673 165.36C315.673 165.36 315.602 165.412 315.449 165.525C312.71 167.545 286.048 187.016 248.954 207.02C231.654 216.354 212.086 225.774 191.635 233.627C191.509 230.418 191.322 228.41 191.271 227.798C191.29 227.207 191.339 226.63 191.367 226.05C210.994 215.72 230.34 204.245 247.73 193.329C282.778 171.316 309.806 151.576 314.739 147.937C315.259 147.554 315.53 147.354 315.542 147.345C315.542 147.345 316.557 146.596 318.437 145.191C324.096 140.98 337.623 130.93 355.244 117.931C376.89 101.963 404.713 81.5461 431.73 62.0129C431.461 63.7984 431.172 65.581 430.866 67.3401C412.493 85.4219 392.364 103.248 374.154 118.611C358.036 132.215 343.419 143.9 332.831 152.179C327.538 156.319 323.255 159.604 320.292 161.862C318.81 162.992 317.662 163.857 316.892 164.443C316.121 165.029 315.7 165.322 315.7 165.322L317.173 167.32L317.17 167.34ZM186.502 222.964C184.787 223.85 183.08 224.749 181.368 225.615C181.785 223.882 182.234 222.144 182.7 220.429C184.102 219.413 185.512 218.409 186.925 217.385C186.761 219.238 186.617 221.093 186.502 222.964ZM186.312 228.66C186.405 229.602 186.588 231.974 186.674 235.501C184.381 236.345 182.07 237.165 179.763 237.965C179.879 235.084 179.85 233.192 179.836 232.481C179.868 232.278 179.92 232.077 179.964 231.864C182.082 230.807 184.191 229.738 186.303 228.649L186.312 228.66ZM179.433 243.35C181.882 242.518 184.304 241.651 186.718 240.772C186.701 243.22 186.633 245.994 186.483 249.027C183.888 249.66 181.288 250.262 178.671 250.839C179.019 248.075 179.256 245.555 179.433 243.35ZM436.859 61.3319C437.022 60.2192 437.157 59.0919 437.311 57.9675C438.173 57.332 439.052 56.7197 439.913 56.0841C439.569 57.1497 439.214 58.2239 438.837 59.2951C438.168 59.9692 437.52 60.6462 436.85 61.3202L436.859 61.3319ZM449.371 40.1961C450.762 39.5126 452.13 38.8464 453.509 38.1716C453.01 39.225 452.483 40.2637 451.963 41.3141C450.834 42.1296 449.695 42.9334 448.553 43.7575C448.832 42.5782 449.101 41.3871 449.371 40.1961ZM461.872 28.7553C461.992 27.7824 462.154 26.6172 462.361 25.2919C464.526 24.669 466.681 24.1073 468.848 23.5368C468.587 24.5414 468.389 25.3363 468.265 25.9333C466.137 26.8536 464.006 27.7943 461.88 28.767L461.872 28.7553ZM463.337 19.8456C463.668 18.1943 464.05 16.415 464.496 14.4989C466.976 14.1305 469.441 13.7911 471.941 13.4985C471.376 15.1054 470.872 16.5958 470.463 17.9438C468.082 18.5457 465.707 19.1796 463.337 19.8456ZM477.455 12.8944C479.702 12.6797 481.943 12.5058 484.193 12.3435C483.656 13.3706 483.185 14.3133 482.744 15.1978C480.535 15.637 478.343 16.0996 476.144 16.603C476.537 15.4298 476.967 14.2101 477.455 12.8944ZM479.453 7.72213C480.084 6.15627 480.769 4.51481 481.527 2.80072C484.119 2.85514 486.728 2.93293 489.348 3.07486C488.484 4.52346 487.719 5.88202 486.995 7.17368C484.476 7.31764 481.964 7.49364 479.465 7.71342L479.453 7.72213ZM483.762 -2.14933C484.603 -3.92436 485.522 -5.79241 486.487 -7.69529C489.408 -7.34264 492.347 -6.96663 495.325 -6.51182C494.243 -4.86572 493.231 -3.27189 492.274 -1.75364C489.429 -1.9283 486.579 -2.06218 483.762 -2.14933ZM488.971 -12.4319C489.426 -13.2727 489.869 -14.1047 490.348 -14.9629C504.137 -39.7287 528.218 -71.8885 569.645 -102.449C601.228 -125.748 642.921 -148.116 697.842 -165.522C653.999 -145.501 618.496 -123.982 589.898 -102.886C542.854 -68.1816 514.535 -34.6999 498.379 -11.0923C495.221 -11.5943 492.085 -12.0408 488.971 -12.4319ZM500.703 -5.64477C503.295 -5.19404 505.914 -4.70823 508.546 -4.17869C507.455 -2.9406 506.434 -1.75478 505.461 -0.603742C502.928 -0.899853 500.417 -1.1405 497.912 -1.34911C498.798 -2.74227 499.731 -4.17023 500.715 -5.65343L500.703 -5.64477ZM512.372 -8.47999C509.492 -9.09769 506.635 -9.65993 503.792 -10.1784C519.862 -33.2356 547.544 -65.4545 592.866 -98.8879C622.49 -120.742 659.682 -143.109 706.079 -163.769C676.927 -145.674 651.23 -128.106 628.711 -111.494C570.17 -68.3092 533.092 -31.5581 512.383 -8.48871L512.372 -8.47999ZM566.677 -106.447C523.964 -74.9378 499.295 -41.6229 485.301 -16.1467C484.718 -15.0848 484.193 -14.0665 483.636 -13.0424C480.297 -13.3934 477.01 -13.6743 473.737 -13.9114C474.057 -14.6885 474.385 -15.4539 474.705 -16.231C486.448 -43.5469 508.478 -78.216 549.905 -108.776C582.503 -132.824 627.143 -154.335 688.318 -167.661C636.829 -150.494 597.142 -128.939 566.657 -106.45L566.677 -106.447ZM481.199 -8.26779C480.164 -6.18736 479.203 -4.17955 478.316 -2.24438C475.291 -2.26805 472.286 -2.2159 469.307 -2.1287C470.072 -4.35272 470.89 -6.65234 471.803 -9.02162C474.905 -8.81996 478.04 -8.57161 481.196 -8.2474L481.199 -8.26779ZM476.115 2.7524C475.292 4.67611 474.544 6.52721 473.864 8.27359C471.165 8.56854 468.493 8.89848 465.822 9.28092C466.369 7.25439 466.972 5.13189 467.675 2.89894C470.468 2.80535 473.295 2.75848 476.115 2.7524ZM460.443 10.0924C457.69 10.5358 454.951 11.0229 452.217 11.5421C452.62 9.09843 453.089 6.4976 453.65 3.77466C456.541 3.51818 459.437 3.29379 462.365 3.13649C461.629 5.57333 460.994 7.89975 460.422 10.0894L460.443 10.0924ZM459.183 15.3513C458.69 17.5733 458.281 19.5886 457.945 21.4059C455.512 22.1358 453.089 22.8774 450.659 23.6598C450.858 21.5827 451.104 19.2727 451.44 16.788C454.004 16.2857 456.576 15.7952 459.171 15.3601L459.183 15.3513ZM445.496 25.3578C443.048 26.1897 440.626 27.0566 438.212 27.9352C438.229 25.4874 438.296 22.7135 438.447 19.6804C441.033 19.0355 443.641 18.4459 446.259 17.8681C445.91 20.6324 445.673 23.1524 445.496 25.3578ZM188.07 207.376C187.907 208.488 187.773 209.616 187.618 210.74C186.756 211.375 185.878 211.988 185.016 212.623C185.372 211.549 185.716 210.484 186.092 209.412C186.761 208.738 187.41 208.061 188.079 207.387L188.07 207.376ZM175.559 228.511C174.168 229.195 172.8 229.861 171.42 230.536C171.919 229.482 172.447 228.444 172.966 227.393C174.096 226.578 175.234 225.774 176.376 224.95C176.098 226.129 175.828 227.32 175.559 228.511ZM163.058 239.952C162.937 240.925 162.776 242.09 162.569 243.415C160.404 244.038 158.249 244.6 156.081 245.171C156.343 244.166 156.54 243.371 156.665 242.774C158.792 241.854 160.923 240.913 163.049 239.94L163.058 239.952ZM161.593 248.862C161.262 250.513 160.879 252.292 160.434 254.209C157.954 254.577 155.488 254.916 152.989 255.209C153.553 253.602 154.057 252.112 154.466 250.764C156.847 250.162 159.223 249.528 161.593 248.862ZM147.475 255.813C145.227 256.028 142.986 256.202 140.737 256.364C141.273 255.337 141.744 254.394 142.185 253.51C144.394 253.07 146.587 252.608 148.785 252.104C148.393 253.278 147.962 254.497 147.475 255.813ZM145.476 260.985C144.845 262.551 144.161 264.193 143.402 265.907C140.811 265.852 138.202 265.774 135.582 265.633C136.445 264.184 137.211 262.825 137.935 261.534C140.453 261.39 142.966 261.214 145.476 260.985ZM141.167 270.857C140.326 272.632 139.408 274.5 138.442 276.403C135.521 276.05 132.583 275.674 129.605 275.219C130.687 273.573 131.698 271.979 132.656 270.461C135.5 270.636 138.351 270.77 141.167 270.857ZM124.218 274.34C121.625 273.89 119.007 273.404 116.375 272.874C117.466 271.636 118.487 270.45 119.46 269.299C121.993 269.596 124.504 269.836 127.009 270.045C126.123 271.438 125.19 272.866 124.206 274.349L124.218 274.34ZM106.98 275.926C86.1565 298.864 49.7999 334.469 -6.73412 376.174C-30.3037 393.561 -57.3912 412.01 -88.3178 431.036C-22.5055 375.325 28.4143 332.928 63.626 303.849C78.5054 291.556 90.5657 281.667 99.7724 274.136C102.19 274.77 104.582 275.368 106.971 275.915L106.98 275.926ZM77.9518 381.476C120.842 349.836 143.483 313.723 155.364 285.531C155.732 284.646 156.097 283.782 156.441 282.914C159.841 283.076 163.206 283.191 166.532 283.227C166.208 284.296 165.864 285.361 165.505 286.456C155.573 316.549 135.224 353.965 93.3486 384.856C60.1127 409.374 13.2279 429.818 -52.955 439.098C4.02991 425.527 46.439 404.723 77.94 381.485L77.9518 381.476ZM158.354 278.022C159.304 275.48 160.18 273.012 160.959 270.634C164.042 270.488 167.113 270.279 170.138 270.032C169.517 272.673 168.815 275.428 168.007 278.26C164.816 278.233 161.599 278.171 158.354 278.022ZM175.382 269.555C178.469 269.244 181.534 268.877 184.564 268.464C184.119 271.516 183.569 274.7 182.934 277.964C179.726 278.112 176.483 278.213 173.21 278.247C174.034 275.239 174.759 272.342 175.394 269.546L175.382 269.555ZM176.473 264.438C177.066 261.512 177.544 258.724 177.939 256.123C180.694 255.534 183.432 254.922 186.155 254.265C185.941 257.112 185.644 260.144 185.25 263.34C182.345 263.751 179.427 264.118 176.473 264.438ZM460.219 35.4584C460.3 35.2722 460.394 35.0772 460.475 34.891C460.913 34.6941 461.351 34.4973 461.792 34.2801C461.745 34.3149 461.727 34.3644 461.688 34.4109C461.204 34.7678 460.712 35.1132 460.219 35.4584ZM474.033 23.4999C474.141 23.0777 474.272 22.6381 474.407 22.1781C476.327 21.7176 478.247 21.2572 480.161 20.8375C480.128 20.9161 480.107 20.9859 480.074 21.0645C478.082 21.8482 476.064 22.6697 474.042 23.5116L474.033 23.4999ZM488.934 14.077C489.264 13.4369 489.629 12.7708 490.001 12.0638C491.767 11.9875 493.53 11.9316 495.31 11.899C494.945 12.3671 494.626 12.8003 494.311 13.2132C492.525 13.4846 490.727 13.7648 488.934 14.077ZM492.863 6.97571C493.509 5.84991 494.214 4.68059 494.945 3.47346C497.144 3.63744 499.368 3.83643 501.586 4.07623C500.764 5.06162 500.001 6.0035 499.276 6.89884C497.125 6.8982 495 6.9326 492.86 6.9961L492.863 6.97571ZM523.632 2.26298C524.494 1.55454 525.381 0.828708 526.314 0.0680361C527.406 0.362726 528.495 0.677812 529.605 0.995866C528.366 1.63906 527.189 2.21833 526.113 2.76002C525.294 2.58854 524.463 2.42575 523.632 2.26298ZM546.992 -112.725C504.101 -81.085 481.46 -44.9723 469.58 -16.7797C469.212 -15.8949 468.847 -15.0305 468.503 -14.1632C465.103 -14.325 461.737 -14.44 458.412 -14.4762C458.735 -15.5447 459.079 -16.6102 459.438 -17.7048C469.37 -47.7974 489.72 -85.2137 531.595 -116.105C564.831 -140.623 611.716 -161.066 677.899 -170.347C620.914 -156.775 578.505 -135.972 547.004 -112.734L546.992 -112.725ZM466.59 -9.27048C465.639 -6.72938 464.763 -4.26086 463.984 -1.88243C460.902 -1.73725 457.83 -1.52798 454.805 -1.28064C455.427 -3.92181 456.128 -6.67638 456.936 -9.50931C460.128 -9.48223 463.345 -9.42011 466.59 -9.27048ZM449.562 -0.803931C446.474 -0.492674 443.41 -0.126 440.379 0.28742C440.825 -2.76516 441.374 -5.94854 442.009 -9.21328C445.218 -9.36098 448.46 -9.46197 451.734 -9.49584C450.909 -6.48811 450.185 -3.59079 449.55 -0.795216L449.562 -0.803931ZM448.47 4.31274C447.886 7.25126 447.4 10.0269 447.004 12.628C444.249 13.2171 441.512 13.8295 438.8 14.477C439.015 11.6306 439.311 8.59798 439.706 5.40246C442.61 4.99158 445.529 4.62443 448.482 4.30403L448.47 4.31274ZM164.724 233.293C164.643 233.479 164.55 233.674 164.469 233.86C164.031 234.057 163.593 234.254 163.151 234.471C163.199 234.436 163.217 234.387 163.255 234.34C163.739 233.983 164.232 233.638 164.724 233.293ZM150.91 245.251C150.802 245.673 150.671 246.113 150.537 246.573C148.616 247.034 146.696 247.494 144.782 247.914C144.815 247.835 144.837 247.765 144.87 247.687C146.862 246.903 148.88 246.081 150.902 245.24L150.91 245.251ZM136.009 254.674C135.679 255.314 135.314 255.98 134.943 256.687C133.177 256.764 131.413 256.82 129.633 256.852C129.999 256.384 130.317 255.951 130.632 255.538C132.418 255.267 134.216 254.986 136.009 254.674ZM132.08 261.775C131.435 262.901 130.73 264.071 129.998 265.278C127.8 265.114 125.575 264.915 123.357 264.675C124.179 263.69 124.943 262.748 125.667 261.852C127.818 261.853 129.943 261.819 132.084 261.755L132.08 261.775ZM101.312 266.488C100.449 267.197 99.563 267.922 98.6297 268.683C97.5375 268.388 96.4484 268.073 95.339 267.755C96.5777 267.112 97.7542 266.533 98.8308 265.991C99.6499 266.163 100.481 266.325 101.312 266.488ZM180.673 288.093C172.443 321.061 153.597 361.355 111.046 392.763C77.397 417.585 28.7876 436.902 -41.4091 442.396C19.7912 432.39 64.1867 412.574 96.3132 388.875C139.841 356.765 160.765 317.607 170.748 286.521C171.107 285.427 171.433 284.338 171.769 283.261C175.177 283.236 178.55 283.165 181.884 283.014C181.518 284.692 181.128 286.386 180.682 288.104L180.673 288.093ZM358.354 200.711C349.039 210.541 340.698 218.209 334.687 223.401C331.681 225.997 329.274 227.971 327.614 229.304C326.79 229.966 326.138 230.465 325.71 230.799C325.485 230.964 325.32 231.086 325.214 231.165C325.108 231.243 325.06 231.278 325.06 231.278L326.534 233.275L325.002 231.321L326.005 232.583L325.025 231.304C323.88 232.148 297.623 251.302 255.017 264.873C235.766 270.993 213.183 275.981 188.059 277.648C188.711 274.208 189.262 270.879 189.698 267.689C213.904 263.939 236.017 257.35 255.006 250.034C296.433 234.05 323.115 214.583 324.812 213.35L324.894 213.289C324.977 213.228 351.446 193.521 380.314 161.673C392.327 148.409 404.744 133.026 415.86 116.076C415.587 116.693 415.321 117.322 415.036 117.947C399.494 152.665 376.975 181.038 358.333 200.708L358.354 200.711ZM503.712 11.9972C502.916 12.0793 502.105 12.1905 501.297 12.2813C501.413 12.1418 501.532 11.9819 501.659 11.8337C502.39 11.8359 503.126 11.8701 503.865 11.884C503.818 11.9188 503.759 11.9624 503.723 11.9885L503.712 11.9972ZM570.005 -2.93896C568.095 -2.6125 566.277 -2.33532 564.506 -2.09296C580.252 -8.36906 600.048 -18.4445 621.977 -34.6214C655.024 -59 692.852 -97.2059 728.761 -156.888C703.418 -94.0502 671.323 -56.4478 640.849 -33.9673C614.222 -14.3252 588.787 -6.18698 570.014 -2.92727L570.005 -2.93896ZM444.256 -19.3853C452.486 -52.3533 471.332 -92.6474 513.883 -124.055C547.532 -148.878 596.13 -168.186 666.327 -173.68C605.135 -163.662 560.731 -143.858 528.616 -120.167C485.089 -88.0572 464.165 -48.9 454.182 -17.8139C453.823 -16.7193 453.496 -15.6304 453.161 -14.5532C449.753 -14.5285 446.379 -14.4571 443.045 -14.3068C443.412 -15.9842 443.81 -17.6673 444.248 -19.3969L444.256 -19.3853ZM266.576 67.997C275.891 58.1668 284.231 50.4988 290.243 45.3065C293.248 42.7104 295.656 40.7361 297.315 39.4036C298.139 38.7416 298.792 38.2424 299.22 37.9085C299.444 37.7431 299.609 37.6213 299.715 37.5429C299.822 37.4646 299.869 37.4297 299.869 37.4297L299.916 37.3949C301.061 36.5503 327.319 17.3966 369.924 3.82588C389.175 -2.29398 411.759 -7.28194 436.883 -8.94896C436.231 -5.50944 435.679 -2.1803 435.244 1.00927C411.037 4.75967 388.924 11.3488 369.935 18.6642C328.509 34.6484 301.826 54.1156 300.13 55.3489L300.059 55.4011C299.953 55.4795 273.495 75.1776 244.628 107.026C232.615 120.289 220.197 135.673 209.081 152.623C209.355 152.006 209.62 151.377 209.906 150.751C225.447 116.034 247.966 87.6603 266.608 67.9912L266.576 67.997ZM121.218 256.71C122.014 256.628 122.825 256.517 123.633 256.426C123.517 256.566 123.398 256.726 123.27 256.874C122.54 256.872 121.804 256.837 121.064 256.823C121.112 256.789 121.171 256.745 121.206 256.719L121.218 256.71ZM54.9242 271.646C56.834 271.32 58.6525 271.043 60.4324 270.812C44.6863 277.088 24.8904 287.164 2.9613 303.34C-30.0857 327.719 -67.9138 365.925 -103.823 425.607C-78.4795 362.769 -46.3848 325.167 -15.9107 302.686C10.7158 283.044 36.151 274.906 54.9242 271.646Z" fill="url(#paint0_linear_4494_21645)" fill-opacity="0.5"/>
</g>
<defs>
<linearGradient id="paint0_linear_4494_21645" x1="737.361" y1="-179.053" x2="-112.42" y2="447.824" gradientUnits="userSpaceOnUse">
<stop offset="0.14" stop-color="#FFF200"/>
<stop offset="0.26" stop-color="#F58220"/>
<stop offset="0.3" stop-color="#F58220"/>
<stop offset="0.37" stop-color="#08B798"/>
<stop offset="0.65" stop-color="#00B49D"/>
<stop offset="0.7" stop-color="#F58220"/>
<stop offset="0.75" stop-color="#F58220"/>
<stop offset="1" stop-color="#C6168D"/>
</linearGradient>
</defs>
</svg>
