<svg width="22" height="22" viewBox="0 0 22 22" fill="none" xmlns="http://www.w3.org/2000/svg">
<circle cx="11" cy="11" r="11" fill="#F0F2F8"/>
<path d="M5.72256 12.1805L9.78998 10.9133V13.755C9.78998 13.9278 9.70409 14.0862 9.55251 14.1822L8.31459 15.003C8.16807 15.099 8.07712 15.2622 8.07712 15.4302V15.4782C8.07712 15.8383 8.45607 16.0927 8.81482 15.9678L10.5731 15.3678C10.6893 15.3294 10.8157 15.3246 10.9319 15.363L12.7003 15.9246C13.054 16.035 13.4229 15.7854 13.4229 15.4302C13.4229 15.2574 13.337 15.099 13.1854 15.003L11.9475 14.1822C11.8009 14.0862 11.71 13.923 11.71 13.755V10.9036L15.7774 12.1805C16.1311 12.2909 16.4949 12.0413 16.4949 11.6861C16.4949 11.5133 16.4039 11.3501 16.2524 11.2541L11.71 8.40274V5.94028C11.71 5.47946 11.3614 5.07622 10.8813 5.00903C10.3104 4.93223 9.78491 5.35464 9.78491 5.91627V8.41714L5.24758 11.2541C5.096 11.3501 5 11.5133 5 11.6861C5.00505 12.0413 5.36886 12.2909 5.72256 12.1805Z" fill="#292C33"/>
</svg>
