<svg width="22" height="22" viewBox="0 0 22 22" fill="none" xmlns="http://www.w3.org/2000/svg">
<circle cx="11" cy="11" r="11" fill="#F0F2F8"/>
<path d="M11.2165 17.68C10.1708 17.68 9.36998 17.395 8.81405 16.825C8.27135 16.255 8 15.4507 8 14.412V7.268C8 6.22933 8.27135 5.425 8.81405 4.855C9.36998 4.285 10.1708 4 11.2165 4C12.2622 4 13.0564 4.285 13.5991 4.855C14.155 5.425 14.433 6.22933 14.433 7.268V8.674H12.3681V7.135C12.3681 6.31167 12.0041 5.9 11.276 5.9C10.548 5.9 10.184 6.31167 10.184 7.135V14.564C10.184 15.3747 10.548 15.78 11.276 15.78C12.0041 15.78 12.3681 15.3747 12.3681 14.564V12.531H14.433V14.412C14.433 15.4507 14.155 16.255 13.5991 16.825C13.0564 17.395 12.2622 17.68 11.2165 17.68Z" fill="#292C33"/>
</svg>
