<svg width="22" height="22" viewBox="0 0 22 22" fill="none" xmlns="http://www.w3.org/2000/svg">
<g clip-path="url(#clip0_4450_26272)">
<path d="M10.1114 7.22914C10.0632 6.67971 9.90621 6.15703 9.66177 5.66289C9.58862 5.51483 9.57791 5.51304 9.46015 5.63078C9.19965 5.89123 8.93916 6.15168 8.68044 6.41212C8.6174 6.47515 8.55495 6.47634 8.4931 6.41569C8.436 6.35861 8.37891 6.30152 8.32359 6.24622C8.26412 6.18676 8.26412 6.1267 8.32359 6.06605C8.62335 5.76636 8.9231 5.46488 9.22285 5.16519C9.31206 5.07599 9.31206 5.05637 9.23712 4.95469C9.18895 4.89047 9.13899 4.82803 9.08725 4.76559C9.00517 4.66451 8.91834 4.65975 8.82675 4.75132C6.76417 6.81707 4.70338 8.88281 2.6408 10.9468C2.62117 10.9664 2.60333 10.9842 2.58371 11.0038C2.52304 11.0699 2.52304 11.1002 2.59084 11.159C2.66756 11.2251 2.74607 11.2875 2.82636 11.3481C2.94769 11.4391 2.9584 11.4391 3.06367 11.3339C3.3652 11.0306 3.66674 10.7291 3.97006 10.4259C4.03786 10.3581 4.045 10.3581 4.1128 10.4241C4.17346 10.4847 4.23412 10.5454 4.29479 10.606C4.36021 10.6715 4.3614 10.7363 4.29836 10.8005C4.02715 11.0716 3.75595 11.3428 3.48653 11.6139C3.40981 11.6906 3.41338 11.7156 3.50794 11.7638C3.85587 11.9404 4.22342 12.067 4.60346 12.1545C4.79973 12.1991 4.99956 12.2187 5.1994 12.2383H5.28861C5.29931 12.2258 5.31359 12.2294 5.32786 12.2294C5.34392 12.2312 5.36355 12.224 5.37782 12.2383H5.44919C5.52591 12.224 5.60263 12.224 5.68114 12.2383H5.77035C5.78463 12.224 5.80247 12.2312 5.82031 12.2294C5.83458 12.2294 5.84886 12.2258 5.85956 12.2383H5.89525C6.00052 12.2187 6.10579 12.2294 6.21106 12.2133C6.70529 12.1402 7.17455 11.9868 7.61704 11.7566C8.47347 11.3107 9.12829 10.6596 9.59397 9.814C10.0365 9.00768 10.1881 8.14071 10.1096 7.23093L10.1114 7.22914ZM5.32965 9.79616C5.16728 9.96028 5.00313 10.1226 4.84076 10.2867C4.80686 10.3224 4.78724 10.3135 4.75869 10.2832C4.66234 10.1833 4.56421 10.0834 4.46429 9.98882C4.42504 9.95136 4.43396 9.93352 4.46786 9.89962C4.62844 9.74264 4.78724 9.58209 4.94425 9.42154C4.97637 9.38765 4.99599 9.37694 5.03346 9.41797C5.12803 9.51965 5.22973 9.61598 5.32786 9.7141C5.34035 9.72659 5.35106 9.73907 5.36711 9.75513C5.35284 9.77118 5.34214 9.78367 5.32965 9.79616ZM6.27172 8.85248C6.11114 9.01482 5.94878 9.17536 5.78819 9.3377C5.76143 9.36446 5.74359 9.37873 5.71147 9.34305C5.61156 9.2378 5.50807 9.13612 5.40458 9.03444C5.37782 9.00768 5.37425 8.99162 5.40458 8.96308C5.57409 8.79718 5.74002 8.62771 5.90774 8.46003C5.92558 8.44219 5.93985 8.4297 5.96483 8.45467C6.07189 8.56528 6.18251 8.67409 6.29135 8.78291C6.29849 8.79005 6.30562 8.80075 6.31276 8.81145C6.29849 8.82751 6.286 8.83999 6.27351 8.85248H6.27172ZM7.22094 7.90167C7.05857 8.06579 6.89442 8.22812 6.73206 8.39402C6.70172 8.42435 6.68388 8.42435 6.65533 8.39402C6.5572 8.29056 6.45728 8.19066 6.3538 8.09254C6.31633 8.05687 6.32882 8.03903 6.35737 8.0087C6.51973 7.84815 6.68031 7.68582 6.84089 7.52527C6.86052 7.50565 6.87658 7.4771 6.91048 7.51278C7.01575 7.6216 7.1228 7.72685 7.22986 7.83388C7.23878 7.8428 7.24592 7.85172 7.25484 7.86242C7.24235 7.87669 7.23343 7.89097 7.22094 7.90345V7.90167ZM8.1648 6.95621C8.00422 7.11676 7.84185 7.27909 7.68305 7.44143C7.65272 7.47354 7.63309 7.48067 7.59919 7.44321C7.50106 7.33974 7.40114 7.23985 7.29766 7.14173C7.26733 7.11141 7.26554 7.09535 7.29766 7.06503C7.46359 6.90091 7.62953 6.73501 7.79368 6.5691C7.8133 6.54948 7.82758 6.53164 7.85612 6.56197C7.96318 6.67257 8.0738 6.7796 8.18086 6.8902C8.18799 6.89734 8.19513 6.90804 8.20227 6.91696C8.18799 6.93123 8.17729 6.9455 8.1648 6.95799V6.95621Z" fill="black"/>
<path d="M8.54554 4.32291C8.583 4.28188 8.583 4.24085 8.54197 4.20695C8.4367 4.11598 8.32964 4.02678 8.21367 3.94829C8.17798 3.92332 8.14051 3.92867 8.10661 3.95721C8.08342 3.97683 8.06379 3.99824 8.04238 4.01965C7.74263 4.31934 7.44288 4.62082 7.14313 4.92051C7.07176 4.99187 7.0664 4.99187 6.99503 4.92051C6.93437 4.85986 6.87371 4.79921 6.81304 4.73855C6.75 4.67552 6.74881 4.61368 6.80947 4.55303C7.08246 4.28009 7.35545 4.00716 7.62665 3.73244C7.69802 3.66108 7.69445 3.62362 7.61238 3.58438C7.25553 3.41491 6.8862 3.27755 6.49902 3.19192C6.28669 3.14554 6.07258 3.1277 5.85848 3.10986H5.68005C5.59084 3.12413 5.50163 3.12413 5.41242 3.10986H5.34105C5.33034 3.12057 5.31785 3.11878 5.30536 3.11878C5.29287 3.11878 5.28038 3.12057 5.26968 3.10986H5.18047C5.09304 3.1277 5.00383 3.11878 4.91818 3.13127C4.49353 3.19192 4.08316 3.31144 3.6942 3.49162C3.08577 3.77169 2.55942 4.16414 2.11872 4.67077C1.58345 5.28264 1.23017 5.98727 1.06423 6.78824C1.02855 6.95771 1.02141 7.12718 1 7.29665V7.368C1.01249 7.37871 1.00892 7.39298 1.00892 7.40547C1.00892 7.41617 1.00892 7.42509 1.00892 7.43579C1.00892 7.44828 1.01071 7.46255 1 7.47325V7.52677C1.01427 7.61596 1.01427 7.70516 1 7.79435V7.86571C1.01249 7.87641 1.00892 7.89068 1.00892 7.90495C1.00714 7.92101 1.01427 7.94063 1 7.9549V8.02626C1.01784 8.10653 1.01071 8.19038 1.02141 8.27244C1.08921 8.76122 1.23195 9.2286 1.44963 9.67279C1.52813 9.83155 1.53349 9.83155 1.66017 9.7049C1.92602 9.43731 2.19187 9.17151 2.45951 8.90393C2.52731 8.83614 2.53266 8.83614 2.60046 8.90393C2.66291 8.96637 2.72714 9.03059 2.78959 9.09302C2.85025 9.15368 2.85085 9.21433 2.79137 9.27498C2.48805 9.58002 2.18295 9.88329 1.87963 10.1883C1.80469 10.2633 1.80291 10.2882 1.86357 10.3721C1.91531 10.4452 1.97241 10.513 2.0295 10.5826C2.14548 10.7271 2.15083 10.7271 2.2793 10.6004C4.34723 8.52932 6.41516 6.45644 8.48309 4.38534C8.5045 4.36394 8.52412 4.34253 8.54554 4.32112V4.32291ZM3.81553 8.27957C3.65316 8.44369 3.48901 8.60602 3.32664 8.77014C3.29274 8.80403 3.2749 8.80047 3.24457 8.76836C3.14644 8.66667 3.04473 8.56499 2.94303 8.46688C2.91092 8.43655 2.91627 8.41871 2.94303 8.39017C3.10718 8.22784 3.27133 8.0655 3.43191 7.8996C3.46403 7.86571 3.48366 7.86571 3.51577 7.8996C3.61212 7.9995 3.71204 8.09761 3.81017 8.19573C3.82266 8.20821 3.83515 8.2207 3.84943 8.23676C3.83694 8.25103 3.82623 8.2653 3.81374 8.27779L3.81553 8.27957ZM4.76117 7.33233C4.5988 7.49644 4.43465 7.65878 4.27229 7.82468C4.24196 7.85501 4.22412 7.85322 4.19557 7.82468C4.09743 7.723 3.99752 7.62132 3.89403 7.5232C3.85656 7.48752 3.86905 7.4679 3.8976 7.43936C4.05997 7.27881 4.22055 7.11648 4.38113 6.95593C4.40075 6.9363 4.41681 6.90776 4.45071 6.94344C4.55598 7.05226 4.66304 7.15751 4.77009 7.26454C4.77901 7.27346 4.78437 7.28238 4.79507 7.29308C4.78258 7.30735 4.77188 7.32162 4.75939 7.33411L4.76117 7.33233ZM5.70325 6.39043C5.54267 6.54742 5.38387 6.70797 5.22507 6.86852C5.2108 6.88279 5.19474 6.89527 5.17868 6.90954C5.16441 6.89706 5.1537 6.88814 5.14478 6.87743C5.04486 6.77754 4.94495 6.67407 4.84146 6.57596C4.80578 6.54206 4.80934 6.52423 4.84146 6.49212C5.00383 6.33157 5.16619 6.17102 5.32499 6.0069C5.36246 5.96765 5.38208 5.97657 5.41598 6.01047C5.51055 6.10858 5.6069 6.20669 5.70503 6.29946C5.7425 6.33513 5.73893 6.35476 5.70503 6.39043H5.70325ZM6.66495 5.42713C6.49366 5.59482 6.32595 5.76607 6.15644 5.93554C6.14752 5.94446 6.1386 5.9516 6.13146 5.95695C6.10648 5.95695 6.09935 5.93911 6.08686 5.92662C5.98516 5.82672 5.88702 5.72326 5.78532 5.62693C5.74785 5.59125 5.75677 5.57341 5.78889 5.54309C5.95126 5.38254 6.11184 5.22199 6.27242 5.05965C6.30097 5.02933 6.32059 5.01862 6.35449 5.0543C6.45263 5.15777 6.55433 5.25588 6.65424 5.35756C6.67387 5.37718 6.70064 5.39146 6.66495 5.42713Z" fill="black"/>
</g>
<path d="M9.02574 18.5337L10.4084 19.4702C11.12 19.9565 12.0919 19.754 12.5613 19.0218L18.8191 9.34329C18.873 9.25993 18.8507 9.14752 18.7688 9.08996L15.0928 6.60003C15.0091 6.54535 14.8992 6.56822 14.843 6.65207L8.5874 16.3301C8.11244 17.0584 8.31028 18.0533 9.02561 18.5336L9.02574 18.5337Z" fill="black"/>
<path d="M16.4164 7.06145L17.8355 8.02271L20.7552 3.50707C21.0179 3.10068 20.9044 2.55962 20.5152 2.30023C20.1246 2.03564 19.5969 2.14555 19.336 2.54584L16.4164 7.06145Z" fill="black"/>
<defs>
<clipPath id="clip0_4450_26272">
<rect width="9.12994" height="9.12994" fill="white" transform="translate(1 3.10645)"/>
</clipPath>
</defs>
</svg>
