<svg width="27" height="22" viewBox="0 0 27 22" fill="none" xmlns="http://www.w3.org/2000/svg">
<g clip-path="url(#clip0_4470_26870)">
<path d="M9.68192 16.9899C8.45937 16.9899 7.23682 16.9899 6.0113 16.9899C5.81249 16.9899 5.80655 16.9845 5.80655 16.7983C5.80655 16.4753 5.80655 16.1522 5.80655 15.8292C5.80655 15.6239 5.80655 15.6239 6.02614 15.6239C6.41783 15.6239 6.80952 15.6239 7.20121 15.6239C7.36738 14.4987 7.15967 13.5844 6.58697 12.9055C5.74127 11.9035 4.33177 11.7064 4.08252 11.679C4.07065 11.679 4.06174 11.679 4.05284 11.6763C4.04691 11.6763 4.04394 11.6763 4.04394 11.6763C4.0024 11.6599 3.96976 11.6161 3.93711 11.5887C3.92525 11.5805 3.91634 11.5695 3.90744 11.5586C3.64335 11.2766 3.37332 11.0001 3.10329 10.7209C2.7205 10.3294 2.35551 9.9215 1.95789 9.54371C1.64631 9.24532 1.26649 9.14676 0.836225 9.25627C-0.0836567 9.48622 -0.172678 10.4362 0.221981 10.9098C0.311002 11.0193 0.411892 11.1178 0.51575 11.2164C1.66412 12.2758 2.80952 13.3353 3.96085 14.3892C4.10329 14.5179 4.16263 14.652 4.1567 14.8327C4.14483 15.2926 4.15373 15.7526 4.15373 16.2125C4.15373 16.749 4.15373 17.2856 4.15373 17.8249C4.15373 17.9837 4.16857 17.9974 4.3199 17.9974C6.15076 17.9974 7.97866 17.9974 9.80952 17.9974C9.93415 17.9974 9.97866 17.9563 9.97866 17.8495C9.97866 17.6552 9.97866 17.4581 9.97866 17.2637C9.97866 16.9954 9.96975 16.9872 9.68192 16.9872V16.9899Z" fill="black"/>
<path d="M13.0022 8.31424C13.0022 8.25401 13.0022 8.19105 13.0022 8.13082C13.0111 7.96383 12.9517 7.81874 12.8301 7.69555C12.4829 7.3424 11.925 7.32597 11.5541 7.66269C11.0497 8.12261 10.5482 8.588 10.0467 9.05065C10.0111 9.0835 9.98141 9.12183 9.928 9.14373C9.92206 9.10814 9.928 9.08624 9.93393 9.06434C10.1357 8.3553 10.3405 7.64901 10.5422 6.93997C10.6461 6.57587 10.7648 6.21178 10.8508 5.8422C10.9725 5.31385 10.4384 4.88952 10.014 4.91142C9.57191 4.93332 9.26331 5.14959 9.14461 5.57666C8.81227 6.75382 8.46805 7.92824 8.14758 9.10814C8.17132 9.02054 8.17429 8.9302 8.17429 8.83985C8.17429 8.00215 8.17429 7.16445 8.17429 6.32675C8.17429 5.86136 8.18022 5.39871 8.17429 4.93332C8.16835 4.41318 7.88052 4.08741 7.3642 3.99707H7.06746C6.60455 4.0792 6.29595 4.35843 6.26034 4.74443C6.20693 5.36039 6.18022 5.97908 6.13868 6.59504C6.11494 6.98925 6.09417 7.3862 6.06746 7.78041C6.05262 8.00215 6.04966 8.2239 6.02592 8.44838C6.00811 8.61264 5.98141 8.77963 6.02295 8.94662V8.9521C6.01702 8.9521 6.00811 8.94388 6.00218 8.91924C5.99921 8.81795 5.94877 8.69476 5.90426 8.56883C5.60159 7.71197 5.30188 6.85511 5.00218 5.99551C4.91909 5.75734 4.85381 5.51369 4.72918 5.28921C4.53037 4.92237 4.08527 4.76359 3.67577 4.90595C3.26331 5.0483 3.03482 5.45346 3.14461 5.84494C3.47696 7.01662 3.78259 8.19379 4.10604 9.36821C4.13274 9.4695 4.14758 9.57353 4.14758 9.67756C4.14758 10.1512 4.14758 10.6248 4.14758 11.1011C4.47992 11.1367 6.06746 11.3612 7.06746 12.5411C7.73808 13.3322 7.99328 14.367 7.82414 15.6181C8.45619 15.6181 9.08823 15.6181 9.71731 15.6181C9.95173 15.6181 9.96657 15.5989 9.97251 15.3854C9.97844 15.1308 9.9458 14.8735 9.98734 14.6216C10.1891 13.4061 10.3968 12.1934 10.5986 10.9779C10.6253 10.8273 10.6876 10.7096 10.8063 10.6001C11.4532 10.0115 12.0912 9.41748 12.7321 8.82617C12.8865 8.68381 13.0051 8.52503 12.9903 8.3115L13.0022 8.31424ZM6.03185 8.95483C6.03779 8.95483 6.03779 8.95483 6.03185 8.95483Z" fill="black"/>
</g>
<g clip-path="url(#clip1_4470_26870)">
<path d="M17.3181 16.9899C18.5406 16.9899 19.7632 16.9899 20.9887 16.9899C21.1875 16.9899 21.1934 16.9845 21.1934 16.7983C21.1934 16.4753 21.1934 16.1522 21.1934 15.8292C21.1934 15.6239 21.1934 15.6239 20.9739 15.6239C20.5822 15.6239 20.1905 15.6239 19.7988 15.6239C19.6326 14.4987 19.8403 13.5844 20.413 12.9055C21.2587 11.9035 22.6682 11.7064 22.9175 11.679C22.9294 11.679 22.9383 11.679 22.9472 11.6763C22.9531 11.6763 22.9561 11.6763 22.9561 11.6763C22.9976 11.6599 23.0302 11.6161 23.0629 11.5887C23.0748 11.5805 23.0837 11.5695 23.0926 11.5586C23.3567 11.2766 23.6267 11.0001 23.8967 10.7209C24.2795 10.3294 24.6445 9.9215 25.0421 9.54371C25.3537 9.24532 25.7335 9.14676 26.1638 9.25627C27.0837 9.48622 27.1727 10.4362 26.778 10.9098C26.689 11.0193 26.5881 11.1178 26.4843 11.2164C25.3359 12.2758 24.1905 13.3353 23.0391 14.3892C22.8967 14.5179 22.8374 14.652 22.8433 14.8327C22.8552 15.2926 22.8463 15.7526 22.8463 16.2125C22.8463 16.749 22.8463 17.2856 22.8463 17.8249C22.8463 17.9837 22.8314 17.9974 22.6801 17.9974C20.8492 17.9974 19.0213 17.9974 17.1905 17.9974C17.0659 17.9974 17.0213 17.9563 17.0213 17.8495C17.0213 17.6552 17.0213 17.4581 17.0213 17.2637C17.0213 16.9954 17.0302 16.9872 17.3181 16.9872V16.9899Z" fill="black"/>
<path d="M13.9978 8.31424C13.9978 8.25401 13.9978 8.19105 13.9978 8.13082C13.9889 7.96383 14.0483 7.81874 14.1699 7.69555C14.5171 7.3424 15.075 7.32597 15.4459 7.66269C15.9503 8.12261 16.4518 8.588 16.9533 9.05065C16.9889 9.0835 17.0186 9.12183 17.072 9.14373C17.0779 9.10814 17.072 9.08624 17.0661 9.06434C16.8643 8.3553 16.6595 7.64901 16.4578 6.93997C16.3539 6.57587 16.2352 6.21178 16.1492 5.8422C16.0275 5.31385 16.5616 4.88952 16.986 4.91142C17.4281 4.93332 17.7367 5.14959 17.8554 5.57666C18.1877 6.75382 18.5319 7.92824 18.8524 9.10814C18.8287 9.02054 18.8257 8.9302 18.8257 8.83985C18.8257 8.00215 18.8257 7.16445 18.8257 6.32675C18.8257 5.86136 18.8198 5.39871 18.8257 4.93332C18.8316 4.41318 19.1195 4.08741 19.6358 3.99707H19.9325C20.3954 4.0792 20.7041 4.35843 20.7397 4.74443C20.7931 5.36039 20.8198 5.97908 20.8613 6.59504C20.8851 6.98925 20.9058 7.3862 20.9325 7.78041C20.9474 8.00215 20.9503 8.2239 20.9741 8.44838C20.9919 8.61264 21.0186 8.77963 20.977 8.94662V8.9521C20.983 8.9521 20.9919 8.94388 20.9978 8.91924C21.0008 8.81795 21.0512 8.69476 21.0957 8.56883C21.3984 7.71197 21.6981 6.85511 21.9978 5.99551C22.0809 5.75734 22.1462 5.51369 22.2708 5.28921C22.4696 4.92237 22.9147 4.76359 23.3242 4.90595C23.7367 5.0483 23.9652 5.45346 23.8554 5.84494C23.523 7.01662 23.2174 8.19379 22.894 9.36821C22.8673 9.4695 22.8524 9.57353 22.8524 9.67756C22.8524 10.1512 22.8524 10.6248 22.8524 11.1011C22.5201 11.1367 20.9325 11.3612 19.9325 12.5411C19.2619 13.3322 19.0067 14.367 19.1759 15.6181C18.5438 15.6181 17.9118 15.6181 17.2827 15.6181C17.0483 15.6181 17.0334 15.5989 17.0275 15.3854C17.0216 15.1308 17.0542 14.8735 17.0127 14.6216C16.8109 13.4061 16.6032 12.1934 16.4014 10.9779C16.3747 10.8273 16.3124 10.7096 16.1937 10.6001C15.5468 10.0115 14.9088 9.41748 14.2679 8.82617C14.1135 8.68381 13.9949 8.52503 14.0097 8.3115L13.9978 8.31424ZM20.9681 8.95483C20.9622 8.95483 20.9622 8.95483 20.9681 8.95483Z" fill="black"/>
</g>
<defs>
<clipPath id="clip0_4470_26870">
<rect width="13" height="14" fill="white" transform="translate(0 4)"/>
</clipPath>
<clipPath id="clip1_4470_26870">
<rect width="13" height="14" fill="white" transform="matrix(-1 0 0 1 27 4)"/>
</clipPath>
</defs>
</svg>
