<svg width="289" height="55" viewBox="0 0 289 55" fill="none" xmlns="http://www.w3.org/2000/svg">
<g clip-path="url(#clip0_3432_48739)">
<path d="M114.48 6.92969H60.4199V9.08969H114.48V6.92969Z" fill="white"/>
<path d="M288.77 6.92969H167.73V9.07969H288.77V6.92969Z" fill="white"/>
<path d="M98.8301 48.9591V35.4891L90.8301 16.0391H98.8801L102.63 28.4291L106.43 16.0391H114.38L106.43 35.4891V48.9591H98.8301Z" fill="white"/>
<path d="M166.24 32.4991C166.24 22.8591 169.74 16.0391 177.58 16.0391C183.58 16.0391 185.58 20.6191 186.68 24.2491L180.68 26.3491C180.13 23.9191 179.38 22.4391 177.58 22.4391C174.88 22.4391 173.98 26.4991 173.98 32.5091C173.98 38.5191 174.88 42.5791 177.58 42.5791C179.53 42.5791 180.38 40.6191 180.73 38.0491L186.73 40.0991C185.78 43.8691 183.78 48.9691 177.58 48.9691C169.73 48.9691 166.24 42.0991 166.24 32.5091V32.4991Z" fill="white"/>
<path d="M191.13 48.9614V15.9414H198.68V48.9614H191.13Z" fill="white"/>
<path d="M216.96 48.9614L213.71 37.3714H212.11V48.9614H204.56V15.9414H215C220.65 15.9414 224.75 20.3514 224.75 26.3914C224.75 31.9414 222.4 34.4614 220.6 35.6014L225.05 48.9714H216.95L216.96 48.9614ZM213.76 22.4714H212.11V30.8414H213.76C215.81 30.8414 217.06 29.2114 217.06 26.6814C217.06 24.1514 215.81 22.4714 213.76 22.4714Z" fill="white"/>
<path d="M228.43 32.4991C228.43 22.8591 231.93 16.0391 239.77 16.0391C245.77 16.0391 247.77 20.6191 248.87 24.2491L242.87 26.3491C242.32 23.9191 241.57 22.4391 239.77 22.4391C237.07 22.4391 236.17 26.4991 236.17 32.5091C236.17 38.5191 237.07 42.5791 239.77 42.5791C241.72 42.5791 242.57 40.6191 242.92 38.0491L248.92 40.0991C247.97 43.8691 245.97 48.9691 239.77 48.9691C231.92 48.9691 228.43 42.0991 228.43 32.5091V32.4991Z" fill="white"/>
<path d="M252.72 48.9614V15.9414H260.27V42.4314H268.42V48.9714H252.73L252.72 48.9614Z" fill="white"/>
<path d="M273.12 48.9614V15.9414H288.81V22.4814H280.66V28.9214H288.46V35.4614H280.66V42.4414H288.81V48.9814H273.12V48.9614Z" fill="white"/>
<path d="M126.73 11.91L121.3 13.51L120.3 3.06L129.53 0H137.26L137.28 49.02H126.78L126.73 11.91Z" fill="white"/>
<path d="M149.3 11.91L143.87 13.51L142.86 3.06L152.08 0H159.81L159.87 49.02H149.37L149.29 11.91H149.3Z" fill="white"/>
<path d="M81.0097 48.9591V29.0191L75.8797 48.9591H72.7597L67.7297 29.0191V48.9591H60.4297V16.0391H69.9397L74.3197 33.3591L78.7997 16.0391H88.2097V48.9591H81.0097Z" fill="white"/>
<path d="M24.51 5.62109C10.97 5.62109 0 16.5911 0 30.1311C0 43.6711 10.97 54.6411 24.51 54.6411C38.05 54.6411 49.02 43.6711 49.02 30.1311C49.02 16.5911 38.05 5.62109 24.51 5.62109ZM29.78 47.9511C19.83 47.9511 11.77 39.9811 11.77 30.1511C11.77 20.3211 19.83 12.3611 29.78 12.3611C39.73 12.3611 47.79 20.3311 47.79 30.1611C47.79 39.9911 39.72 47.9611 29.78 47.9611V47.9511Z" fill="white"/>
<path d="M34.3301 19.5195C29.7301 20.8895 26.3701 25.1295 26.3701 30.1795C26.3701 35.2295 29.6101 39.3095 34.0801 40.7595C33.4901 37.5095 33.1801 34.1895 33.1801 30.7995C33.1801 26.9495 33.5801 23.1795 34.3301 19.5195Z" fill="white"/>
<path d="M41.1401 19.6595C40.9901 19.6095 40.8301 19.5695 40.6701 19.5195C39.8201 23.1695 39.3701 26.9395 39.3701 30.7995C39.3701 34.2495 39.7301 37.6395 40.4101 40.9195C45.1501 39.6395 48.6501 35.3195 48.6501 30.1795C48.6501 25.2995 45.5101 21.1595 41.1301 19.6495L41.1401 19.6595Z" fill="white"/>
<path d="M38.7002 19.1191C38.3102 19.0691 37.9202 19.0391 37.5202 19.0391C37.5102 19.0391 37.5002 19.0391 37.4802 19.0391C37.1402 19.0391 36.8102 19.0591 36.4902 19.0891C35.6502 22.8791 35.2002 26.7891 35.2002 30.7991C35.2002 34.3491 35.5502 37.8291 36.2202 41.2291C36.3702 41.2491 36.5102 41.2691 36.6602 41.2791C36.9402 41.2991 37.2302 41.3191 37.5202 41.3191C37.8302 41.3191 38.1302 41.2991 38.4402 41.2691C37.7402 37.8691 37.3702 34.3691 37.3702 30.7891C37.3702 26.7891 37.8302 22.8891 38.7102 19.1091L38.7002 19.1191Z" fill="white"/>
</g>
<defs>
<clipPath id="clip0_3432_48739">
<rect width="288.81" height="54.64" fill="white"/>
</clipPath>
</defs>
</svg>
